<svg width="172" height="42" viewBox="0 0 172 42" fill="none" xmlns="http://www.w3.org/2000/svg">
<path opacity="0.5" d="M40.0652 2.25671L30.2601 36.9917C30.2102 37.1494 30.0108 37.1967 29.8945 37.0863L23.3301 30.8583L28.2492 13.4514C28.2991 13.2937 28.1495 13.1518 27.9833 13.1991L9.63617 17.8662L3.10498 11.6697C2.98865 11.5593 3.03851 11.3701 3.20469 11.3228L39.7993 2.00444C39.9655 1.97291 40.115 2.11481 40.0652 2.25671Z" fill="#00B37E"/>
<path opacity="0.5" d="M23.3297 30.858L20.8037 39.8452C20.7538 40.0029 20.5544 40.0502 20.4381 39.9398L0.0634003 20.6251C-0.0529313 20.5147 -0.00307518 20.3255 0.163113 20.2782L9.63583 17.8658L23.3297 30.858Z" fill="#00B37E"/>
<path d="M28.2484 13.4511L23.3292 30.858L9.63533 17.8659L27.9825 13.1988C28.1487 13.1515 28.2982 13.2934 28.2484 13.4511Z" fill="#00B37E"/>
<path d="M65.0481 23.9157V11.3104H68.7835V23.9157C68.7835 25.1317 68.5169 26.1769 67.9839 27.0514C67.4509 27.9176 66.7221 28.5839 65.7977 29.0503C64.8815 29.5167 63.8488 29.7499 62.6994 29.7499C61.5085 29.7499 60.4549 29.55 59.5388 29.1502C58.6226 28.7504 57.9022 28.1383 57.3775 27.3138C56.8528 26.4809 56.5904 25.4273 56.5904 24.1531H60.3508C60.3508 24.8194 60.4424 25.3482 60.6256 25.7397C60.8172 26.1311 61.0879 26.4101 61.4377 26.5767C61.7875 26.7432 62.2081 26.8265 62.6994 26.8265C63.1742 26.8265 63.5864 26.7141 63.9362 26.4892C64.286 26.2644 64.5567 25.9354 64.7483 25.5023C64.9482 25.0692 65.0481 24.5403 65.0481 23.9157ZM71.9816 11.3104H78.7652C80.1561 11.3104 81.3512 11.5186 82.3507 11.9351C83.3584 12.3515 84.133 12.9678 84.6743 13.784C85.2157 14.6002 85.4864 15.6038 85.4864 16.7948C85.4864 17.7692 85.3198 18.6062 84.9867 19.3058C84.6618 19.9971 84.1996 20.576 83.6 21.0424C83.0086 21.5004 82.3132 21.8669 81.5137 22.1417L80.3268 22.7664H74.4302L74.4052 19.843H78.7902C79.4482 19.843 79.9937 19.7264 80.4268 19.4932C80.8599 19.26 81.1847 18.9352 81.4012 18.5188C81.6261 18.1024 81.7385 17.6193 81.7385 17.0696C81.7385 16.4866 81.6303 15.9828 81.4137 15.558C81.1972 15.1332 80.8682 14.8084 80.4268 14.5836C79.9854 14.3587 79.4315 14.2462 78.7652 14.2462H75.7295V29.5H71.9816V11.3104ZM82.1508 29.5L78.0032 21.3922L81.9634 21.3672L86.161 29.3251V29.5H82.1508ZM96.4551 11.3104H99.6283L104.301 24.6653L108.973 11.3104H112.146L105.575 29.5H103.026L96.4551 11.3104ZM94.7436 11.3104H97.9043L98.4789 24.328V29.5H94.7436V11.3104ZM110.697 11.3104H113.87V29.5H110.122V24.328L110.697 11.3104ZM116.356 22.8788V22.6164C116.356 21.6253 116.498 20.7134 116.781 19.8805C117.064 19.0393 117.476 18.3106 118.018 17.6943C118.559 17.078 119.225 16.5991 120.017 16.2576C120.808 15.9078 121.716 15.7329 122.74 15.7329C123.764 15.7329 124.676 15.9078 125.476 16.2576C126.275 16.5991 126.946 17.078 127.487 17.6943C128.037 18.3106 128.453 19.0393 128.737 19.8805C129.02 20.7134 129.161 21.6253 129.161 22.6164V22.8788C129.161 23.8616 129.02 24.7735 128.737 25.6147C128.453 26.4476 128.037 27.1763 127.487 27.801C126.946 28.4173 126.28 28.8962 125.488 29.2377C124.697 29.5791 123.789 29.7499 122.765 29.7499C121.741 29.7499 120.829 29.5791 120.029 29.2377C119.238 28.8962 118.567 28.4173 118.018 27.801C117.476 27.1763 117.064 26.4476 116.781 25.6147C116.498 24.7735 116.356 23.8616 116.356 22.8788ZM119.954 22.6164V22.8788C119.954 23.4451 120.004 23.974 120.104 24.4654C120.204 24.9568 120.362 25.3899 120.579 25.7646C120.804 26.1311 121.095 26.4184 121.453 26.6266C121.811 26.8349 122.249 26.939 122.765 26.939C123.265 26.939 123.694 26.8349 124.052 26.6266C124.41 26.4184 124.697 26.1311 124.914 25.7646C125.13 25.3899 125.289 24.9568 125.388 24.4654C125.497 23.974 125.551 23.4451 125.551 22.8788V22.6164C125.551 22.0668 125.497 21.5504 125.388 21.0673C125.289 20.576 125.126 20.1429 124.901 19.7681C124.685 19.385 124.397 19.0851 124.039 18.8686C123.681 18.6521 123.248 18.5438 122.74 18.5438C122.232 18.5438 121.799 18.6521 121.441 18.8686C121.091 19.0851 120.804 19.385 120.579 19.7681C120.362 20.1429 120.204 20.576 120.104 21.0673C120.004 21.5504 119.954 22.0668 119.954 22.6164ZM134.896 18.8686V29.5H131.298V15.9828H134.671L134.896 18.8686ZM134.371 22.2666H133.396C133.396 21.2672 133.525 20.3677 133.784 19.5682C134.042 18.7603 134.404 18.0732 134.871 17.5069C135.337 16.9322 135.891 16.495 136.532 16.1951C137.182 15.887 137.906 15.7329 138.706 15.7329C139.339 15.7329 139.918 15.8245 140.442 16.0077C140.967 16.191 141.417 16.4825 141.792 16.8822C142.175 17.282 142.466 17.8109 142.666 18.4688C142.874 19.1268 142.978 19.9305 142.978 20.8799V29.5H139.355V20.8675C139.355 20.2678 139.272 19.8014 139.106 19.4683C138.939 19.1351 138.693 18.9019 138.369 18.7687C138.052 18.6271 137.661 18.5563 137.194 18.5563C136.711 18.5563 136.291 18.6521 135.932 18.8436C135.583 19.0352 135.291 19.3017 135.058 19.6432C134.833 19.9763 134.662 20.3677 134.546 20.8175C134.429 21.2672 134.371 21.7503 134.371 22.2666ZM151.936 29.7499C150.886 29.7499 149.945 29.5833 149.112 29.2501C148.28 28.9087 147.572 28.4381 146.989 27.8385C146.414 27.2388 145.973 26.5434 145.664 25.7521C145.356 24.9526 145.202 24.1031 145.202 23.2036V22.7039C145.202 21.6795 145.348 20.7425 145.639 19.893C145.931 19.0435 146.347 18.3064 146.889 17.6818C147.438 17.0571 148.105 16.5782 148.888 16.2451C149.67 15.9036 150.553 15.7329 151.536 15.7329C152.494 15.7329 153.343 15.8911 154.085 16.2076C154.826 16.5241 155.446 16.9739 155.946 17.5569C156.454 18.1398 156.837 18.8394 157.095 19.6556C157.353 20.4635 157.483 21.363 157.483 22.3541V23.8532H146.739V21.4546H153.947V21.1798C153.947 20.6801 153.855 20.2345 153.672 19.843C153.497 19.4433 153.231 19.1268 152.873 18.8936C152.515 18.6604 152.057 18.5438 151.499 18.5438C151.024 18.5438 150.616 18.6479 150.274 18.8561C149.933 19.0643 149.654 19.3558 149.437 19.7306C149.229 20.1054 149.071 20.5468 148.962 21.0548C148.863 21.5546 148.813 22.1042 148.813 22.7039V23.2036C148.813 23.745 148.888 24.2447 149.037 24.7028C149.196 25.1608 149.416 25.5564 149.7 25.8896C149.991 26.2227 150.341 26.4809 150.749 26.6641C151.165 26.8474 151.636 26.939 152.161 26.939C152.81 26.939 153.414 26.814 153.972 26.5642C154.538 26.306 155.026 25.9187 155.434 25.4024L157.183 27.3013C156.9 27.7094 156.512 28.1008 156.021 28.4756C155.538 28.8504 154.955 29.1585 154.272 29.4001C153.589 29.6333 152.81 29.7499 151.936 29.7499ZM163.367 27.9759L166.952 15.9828H170.812L165.378 31.5363C165.261 31.8778 165.103 32.2443 164.903 32.6357C164.712 33.0271 164.449 33.3978 164.116 33.7476C163.791 34.1057 163.379 34.3972 162.879 34.6221C162.388 34.8469 161.784 34.9594 161.068 34.9594C160.727 34.9594 160.448 34.9385 160.231 34.8969C160.014 34.8553 159.756 34.797 159.456 34.722V32.086C159.548 32.086 159.644 32.086 159.744 32.086C159.844 32.0943 159.94 32.0985 160.031 32.0985C160.506 32.0985 160.893 32.0444 161.193 31.9361C161.493 31.8278 161.734 31.6613 161.918 31.4364C162.101 31.2198 162.247 30.9367 162.355 30.5869L163.367 27.9759ZM161.868 15.9828L164.803 25.7771L165.316 29.5874L162.867 29.8498L158.007 15.9828H161.868Z" fill="#E1E1E6"/>
</svg>
